<svg xmlns="http://www.w3.org/2000/svg" width="940" height="394" viewBox="0 0 940 394" role="img" aria-labelledby="title desc">
<title id="title">Profile introduction and facts</title><desc id="desc">Hobbyist developer profile introduction, current focus, and key facts.</desc><style>
  .bg{fill:#0D1117}.panel{fill:#101720;stroke:#303A49;stroke-width:1}.panel2{fill:#0F141B;stroke:#303A49;stroke-width:1}.soft{fill:#131B27;stroke:#344052;stroke-width:1}.line{stroke:#2A3340;stroke-width:1}.title{font:800 24px 'Segoe UI',Arial,sans-serif;fill:#F9FAFB}.h3{font:800 20px 'Segoe UI',Arial,sans-serif;fill:#F9FAFB}.body{font:600 14px 'Segoe UI',Arial,sans-serif;fill:#F9FAFB}.small{font:700 12px 'Segoe UI',Arial,sans-serif;fill:#D1D5DB}.mono{font:800 12px 'Cascadia Mono','SFMono-Regular',Consolas,monospace;fill:#F9FAFB;letter-spacing:.4px}.accent{fill:#E2725B}.scarlet{fill:#950015}.muted{fill:#D1D5DB}
</style>
<rect class="bg" width="940" height="394" rx="0"/>
  <circle cx="845" cy="64" r="46" fill="#E2725B" opacity="0.08"/>
  <circle cx="828" cy="308" r="92" fill="#950015" opacity="0.10"/>
  <circle cx="78" cy="306" r="68" fill="#950015" opacity="0.045"/>
  <circle cx="716" cy="118" r="34" fill="#E2725B" opacity="0.035"/>
<rect x="38" y="34" width="864" height="300" rx="24" fill="#0F141B" stroke="#303A49"/>
<rect x="64" y="70" width="510" height="224" rx="16" class="soft"/>
<text x="92" y="111" class="title">Hobbyist developer moving toward IT.</text>
<line x1="92" y1="132" x2="526" y2="132" class="line"/>
<text x="92" y="166" class="body">I build practical Discord and web tooling while sharpening</text>
<text x="92" y="190" class="body">the habits that make software reliable: clear interfaces,</text>
<text x="92" y="214" class="body">maintainable TypeScript, sensible deployment and enough</text>
<text x="92" y="238" class="body">polish that the work feels intentional.</text>
<text x="92" y="270" class="body"><tspan font-weight="800">Current focus:</tspan><tspan dx="10">Spud Symphony, a Discord bot and website project.</tspan></text>
<rect x="610" y="72" width="260" height="222" rx="16" fill="#111821" stroke="#303A49"/>
<g class="small">
  <rect x="634" y="96" width="212" height="34" rx="8" fill="#0D1117" stroke="#384252"/><text x="652" y="118" class="small">Building</text><text x="724" y="118" class="small accent">spud-symphony.com</text>
  <rect x="634" y="140" width="212" height="34" rx="8" fill="#0D1117" stroke="#384252"/><text x="652" y="162" class="small">Role</text><text x="724" y="162" class="small">Hobbyist developer</text>
  <rect x="634" y="184" width="212" height="58" rx="8" fill="#0D1117" stroke="#384252"/><text x="652" y="207" class="small">Stack</text><text x="724" y="202" class="small">HTML, CSS, JS, TS</text><text x="724" y="224" class="small">React, Tailwind, C#</text>
  <rect x="634" y="252" width="212" height="28" rx="8" fill="#160E16" stroke="#50303B"/><text x="652" y="271" class="small">Discord</text><rect x="724" y="260" width="62" height="16" rx="8" fill="#253143"/><text x="736" y="272" class="small" font-size="10">ssspudd</text>
</g>
<line x1="38" y1="364" x2="902" y2="364" stroke="#950015" stroke-width="3" opacity=".85"/>
</svg>
