<svg xmlns="http://www.w3.org/2000/svg" width="940" height="322" viewBox="0 0 940 322" role="img" aria-labelledby="title desc"><title id="title">Social links</title><desc id="desc">Website, Discord server, and X links.</desc><style>
  .bg{fill:#0D1117}.panel{fill:#101720;stroke:#303A49;stroke-width:1}.panel2{fill:#0F141B;stroke:#303A49;stroke-width:1}.soft{fill:#131B27;stroke:#344052;stroke-width:1}.line{stroke:#2A3340;stroke-width:1}.title{font:800 24px 'Segoe UI',Arial,sans-serif;fill:#F9FAFB}.h3{font:800 20px 'Segoe UI',Arial,sans-serif;fill:#F9FAFB}.body{font:600 14px 'Segoe UI',Arial,sans-serif;fill:#F9FAFB}.small{font:700 12px 'Segoe UI',Arial,sans-serif;fill:#D1D5DB}.mono{font:800 12px 'Cascadia Mono','SFMono-Regular',Consolas,monospace;fill:#F9FAFB;letter-spacing:.4px}.accent{fill:#E2725B}.scarlet{fill:#950015}.muted{fill:#D1D5DB}
</style><rect class="bg" width="940" height="322"/>
  <circle cx="845" cy="64" r="46" fill="#E2725B" opacity="0.08"/>
  <circle cx="828" cy="308" r="92" fill="#950015" opacity="0.10"/>
  <circle cx="78" cy="306" r="68" fill="#950015" opacity="0.045"/>
  <circle cx="716" cy="118" r="34" fill="#E2725B" opacity="0.035"/><rect x="54" y="30" width="832" height="74" rx="16" fill="#101720" stroke="#303A49"/><circle cx="98" cy="67" r="27" fill="#101720" stroke="#E2725B" stroke-width="1.5"/><svg x="81" y="50" width="34" height="34" viewBox="0 0 24 24" fill="none" stroke="#E2725B" stroke-width="1.8" stroke-linecap="round" stroke-linejoin="round"><circle cx="12" cy="12" r="10"/><path d="M2 12h20"/><path d="M12 2a15.3 15.3 0 0 1 4 10 15.3 15.3 0 0 1-4 10 15.3 15.3 0 0 1-4-10 15.3 15.3 0 0 1 4-10z"/></svg><text x="148" y="62" class="mono">WEBSITE</text><text x="148" y="85" class="small accent">spud-symphony.com</text><rect x="54" y="122" width="832" height="74" rx="16" fill="#101720" stroke="#303A49"/><circle cx="98" cy="159" r="27" fill="#101720" stroke="#E2725B" stroke-width="1.5"/><svg x="81" y="142" width="34" height="34" viewBox="0 0 24 24"><path fill="#5865F2" d="M20.317 4.369A19.79 19.79 0 0 0 15.397 3c-.22.39-.47.91-.64 1.32a18.27 18.27 0 0 0-5.51 0A13.7 13.7 0 0 0 8.597 3a19.74 19.74 0 0 0-4.92 1.369C.567 9.066-.333 13.64.087 18.15A19.95 19.95 0 0 0 6.057 21c.48-.65.91-1.34 1.28-2.06-.7-.26-1.37-.59-2-1 .17-.12.33-.25.49-.38 3.86 1.8 8.04 1.8 11.85 0 .16.13.32.26.49.38-.63.41-1.3.74-2.01 1 .37.72.8 1.41 1.28 2.06a19.9 19.9 0 0 0 5.98-2.85c.5-5.22-.86-9.75-3.1-13.78ZM8.02 15.38c-1.17 0-2.12-1.08-2.12-2.4s.93-2.4 2.12-2.4c1.18 0 2.14 1.08 2.12 2.4 0 1.32-.94 2.4-2.12 2.4Zm7.96 0c-1.17 0-2.12-1.08-2.12-2.4s.93-2.4 2.12-2.4c1.18 0 2.14 1.08 2.12 2.4 0 1.32-.94 2.4-2.12 2.4Z"/></svg><text x="148" y="154" class="mono">DISCORD SERVER</text><text x="148" y="177" class="small accent">discord.gg/Y9pYRXsqae</text><rect x="54" y="214" width="832" height="74" rx="16" fill="#101720" stroke="#303A49"/><circle cx="98" cy="251" r="27" fill="#101720" stroke="#E2725B" stroke-width="1.5"/><svg x="81" y="234" width="34" height="34" viewBox="0 0 24 24"><path fill="#F9FAFB" d="M18.244 2.25h3.308l-7.227 8.26 8.502 11.24h-6.657l-5.214-6.817-5.966 6.817H1.68l7.73-8.835L1.254 2.25H8.08l4.713 6.231 5.45-6.231Zm-1.161 17.52h1.833L7.084 4.126H5.117L17.083 19.77Z"/></svg><text x="148" y="246" class="mono">X / TWITTER</text><text x="148" y="269" class="small accent">@SsSpudds</text><line x1="54" y1="306" x2="886" y2="306" stroke="#E2725B" stroke-width="3" opacity=".75"/></svg>
