<svg xmlns="http://www.w3.org/2000/svg" width="940" height="340" viewBox="0 0 940 340" role="img" aria-labelledby="title desc">
<title id="title">Workbench and values panel</title><desc id="desc">A custom panel showing current workbench notes and values.</desc>
<defs><linearGradient id="accent" x1="0" y1="0" x2="1" y2="0"><stop offset="0" stop-color="#950015"/><stop offset="1" stop-color="#E2725B"/></linearGradient></defs>
<rect width="940" height="340" rx="28" fill="#0D1117"/><rect x="26" y="28" width="888" height="284" rx="24" fill="#0F141B" stroke="#30363D"/><path d="M48 58h844" stroke="#30363D"/><path d="M48 58h220" stroke="url(#accent)" stroke-width="3" stroke-linecap="round"/>
<rect x="66" y="88" width="330" height="166" rx="18" fill="#111827" stroke="#30363D"/><rect x="430" y="88" width="418" height="166" rx="18" fill="#111827" stroke="#30363D"/>
<text x="86" y="128" fill="#F9FAFB" font-family="Segoe UI,Arial,sans-serif" font-size="21" font-weight="800">Workbench</text><rect x="86" y="148" width="278" height="76" rx="12" fill="#0D1117" stroke="#30363D"/>
<g fill="#F9FAFB" font-family="Consolas,Menlo,monospace" font-size="11"><text x="104" y="169">S-s-Spudd</text><text x="104" y="187">|-- shipping: Discord bot features</text><text x="104" y="205">|-- shaping: Spud Symphony website</text><text x="104" y="223">+-- aim: turn hobby work into IT skill</text></g>
<text x="452" y="128" fill="#F9FAFB" font-family="Segoe UI,Arial,sans-serif" font-size="21" font-weight="800">What I care about</text>
<g font-family="Segoe UI,Arial,sans-serif" font-size="13">
<rect x="452" y="148" width="170" height="36" rx="10" fill="#0D1117" stroke="#30363D"/><rect x="452" y="148" width="5" height="36" rx="3" fill="#E2725B"/><text x="472" y="171" fill="#F9FAFB" font-weight="800">Useful first</text><text x="642" y="171" fill="#F9FAFB" font-weight="600">Tools solve real server problems.</text>
<rect x="452" y="194" width="170" height="36" rx="10" fill="#0D1117" stroke="#30363D"/><rect x="452" y="194" width="5" height="36" rx="3" fill="#950015"/><text x="472" y="217" fill="#F9FAFB" font-weight="800">Readable systems</text><text x="642" y="217" fill="#F9FAFB" font-weight="600">Code, UI, and bot behavior stay traceable.</text>
<text x="452" y="265" fill="#E2725B" font-weight="800">Clean presentation</text><text x="594" y="265" fill="#D1D5DB">Profile surfaces should feel intentional.</text><text x="452" y="288" fill="#E2725B" font-weight="800">Practical growth</text><text x="580" y="288" fill="#D1D5DB">Every project builds better IT habits.</text>
</g></svg>
