<svg xmlns="http://www.w3.org/2000/svg" width="940" height="310" viewBox="0 0 940 310" role="img" aria-labelledby="title desc">
<title id="title">Workbench and values panel</title><desc id="desc">A custom panel showing current workbench notes and values.</desc>
<defs><linearGradient id="accent" x1="0" y1="0" x2="1" y2="0"><stop offset="0" stop-color="#950015"/><stop offset="1" stop-color="#E2725B"/></linearGradient><filter id="shadow" x="-10%" y="-20%" width="120%" height="140%"><feDropShadow dx="0" dy="16" stdDeviation="14" flood-color="#000" flood-opacity=".32"/></filter></defs>
<rect width="940" height="310" rx="28" fill="#0D1117"/>
<rect x="18" y="18" width="904" height="274" rx="24" fill="#0F141B" stroke="#30363D"/>
<path d="M38 50h864" stroke="#30363D"/><path d="M38 50h210" stroke="url(#accent)" stroke-width="3" stroke-linecap="round"/>
<g filter="url(#shadow)">
<rect x="38" y="76" width="346" height="178" rx="18" fill="#111827" stroke="#30363D"/>
<rect x="410" y="76" width="492" height="178" rx="18" fill="#111827" stroke="#30363D"/>
</g>
<text x="58" y="116" fill="#F9FAFB" font-family="Segoe UI,Arial,sans-serif" font-size="21" font-weight="800">Workbench</text>
<rect x="58" y="135" width="296" height="92" rx="12" fill="#0D1117" stroke="#30363D"/>
<text x="76" y="159" fill="#F9FAFB" font-family="Consolas,Menlo,monospace" font-size="12">S-s-Spudd</text>
<text x="76" y="178" fill="#F9FAFB" font-family="Consolas,Menlo,monospace" font-size="12">|-- shipping: Discord bot features</text>
<text x="76" y="197" fill="#F9FAFB" font-family="Consolas,Menlo,monospace" font-size="12">|-- shaping: Spud Symphony website</text>
<text x="76" y="216" fill="#F9FAFB" font-family="Consolas,Menlo,monospace" font-size="12">+-- aim: turn hobby work into industry skill</text>
<text x="430" y="116" fill="#F9FAFB" font-family="Segoe UI,Arial,sans-serif" font-size="21" font-weight="800">What I care about</text>
<g font-family="Segoe UI,Arial,sans-serif" font-size="14">
<rect x="430" y="136" width="216" height="40" rx="12" fill="#0D1117" stroke="#30363D"/><rect x="430" y="136" width="5" height="40" rx="3" fill="#E2725B"/><text x="450" y="161" fill="#F9FAFB" font-weight="800">Useful first</text>
<rect x="660" y="136" width="218" height="40" rx="12" fill="#0D1117" stroke="#30363D"/><text x="680" y="161" fill="#F9FAFB" font-weight="600">Tools should solve a real server problem.</text>
<rect x="430" y="188" width="216" height="40" rx="12" fill="#0D1117" stroke="#30363D"/><rect x="430" y="188" width="5" height="40" rx="3" fill="#950015"/><text x="450" y="213" fill="#F9FAFB" font-weight="800">Readable systems</text>
<rect x="660" y="188" width="218" height="40" rx="12" fill="#0D1117" stroke="#30363D"/><text x="680" y="213" fill="#F9FAFB" font-weight="600">Code, UI, and bot behavior stay traceable.</text>
</g>
<g font-family="Segoe UI,Arial,sans-serif" font-size="13" opacity=".9">
<text x="430" y="255" fill="#E2725B" font-weight="800">Clean presentation</text><text x="572" y="255" fill="#D1D5DB">Dashboards and profile surfaces should feel intentional.</text>
<text x="430" y="276" fill="#E2725B" font-weight="800">Practical growth</text><text x="560" y="276" fill="#D1D5DB">Every project builds better habits for IT work.</text>
</g>
</svg>
