<svg xmlns="http://www.w3.org/2000/svg" width="940" height="380" viewBox="0 0 940 380" role="img" aria-labelledby="title desc">
<title id="title">Workbench and values panel</title><desc id="desc">A custom panel showing current workbench notes and values.</desc>
<defs><linearGradient id="accent" x1="0" y1="0" x2="1" y2="0"><stop offset="0" stop-color="#950015"/><stop offset="1" stop-color="#E2725B"/></linearGradient></defs>
<rect width="940" height="380" rx="28" fill="#0D1117"/><rect x="26" y="28" width="888" height="324" rx="24" fill="#0F141B" stroke="#30363D"/><path d="M48 58h844" stroke="#30363D"/><path d="M48 58h220" stroke="url(#accent)" stroke-width="3" stroke-linecap="round"/>
<rect x="66" y="88" width="350" height="188" rx="18" fill="#111827" stroke="#30363D"/><rect x="448" y="88" width="420" height="188" rx="18" fill="#111827" stroke="#30363D"/>
<text x="86" y="128" fill="#F9FAFB" font-family="Segoe UI,Arial,sans-serif" font-size="21" font-weight="800">Workbench</text><rect x="86" y="148" width="300" height="94" rx="12" fill="#0D1117" stroke="#30363D"/>
<g fill="#F9FAFB" font-family="Consolas,Menlo,monospace" font-size="10"><text x="104" y="169">S-s-Spudd</text><text x="104" y="187">|-- shipping: Discord bot features</text><text x="104" y="205">|-- shaping: Spud Symphony website</text><text x="104" y="223">|-- learning: IT foundations</text><text x="104" y="239">+-- aim: industry skill</text></g>
<text x="470" y="128" fill="#F9FAFB" font-family="Segoe UI,Arial,sans-serif" font-size="21" font-weight="800">What I care about</text>
<g font-family="Segoe UI,Arial,sans-serif" font-size="12">
<rect x="470" y="148" width="162" height="36" rx="10" fill="#0D1117" stroke="#30363D"/><rect x="470" y="148" width="5" height="36" rx="3" fill="#E2725B"/><text x="490" y="171" fill="#F9FAFB" font-weight="800">Useful first</text><text x="654" y="171" fill="#F9FAFB" font-weight="600">Tools solve server problems.</text>
<rect x="470" y="198" width="162" height="36" rx="10" fill="#0D1117" stroke="#30363D"/><rect x="470" y="198" width="5" height="36" rx="3" fill="#950015"/><text x="490" y="221" fill="#F9FAFB" font-weight="800">Readable systems</text><text x="654" y="221" fill="#F9FAFB" font-weight="600">Code, UI, and bot behavior stay clear.</text>
<text x="470" y="272" fill="#E2725B" font-weight="800">Clean presentation</text><text x="600" y="272" fill="#D1D5DB">Profile surfaces feel intentional.</text><text x="470" y="294" fill="#E2725B" font-weight="800">Practical growth</text><text x="590" y="294" fill="#D1D5DB">Every project builds IT habits.</text>
</g></svg>
