<svg xmlns="http://www.w3.org/2000/svg" width="940" height="430" viewBox="0 0 940 430" role="img" aria-labelledby="title desc"><title id="title">Workbench and values</title><desc id="desc">Current workbench and focus values.</desc><style>
  .bg{fill:#0D1117}.panel{fill:#101720;stroke:#303A49;stroke-width:1}.panel2{fill:#0F141B;stroke:#303A49;stroke-width:1}.soft{fill:#131B27;stroke:#344052;stroke-width:1}.line{stroke:#2A3340;stroke-width:1}.title{font:800 24px 'Segoe UI',Arial,sans-serif;fill:#F9FAFB}.h3{font:800 20px 'Segoe UI',Arial,sans-serif;fill:#F9FAFB}.body{font:600 14px 'Segoe UI',Arial,sans-serif;fill:#F9FAFB}.small{font:700 12px 'Segoe UI',Arial,sans-serif;fill:#D1D5DB}.mono{font:800 12px 'Cascadia Mono','SFMono-Regular',Consolas,monospace;fill:#F9FAFB;letter-spacing:.4px}.accent{fill:#E2725B}.scarlet{fill:#950015}.muted{fill:#D1D5DB}
</style><rect class="bg" width="940" height="430"/>
  <circle cx="845" cy="64" r="46" fill="#E2725B" opacity="0.08"/>
  <circle cx="828" cy="308" r="92" fill="#950015" opacity="0.10"/>
  <circle cx="78" cy="306" r="68" fill="#950015" opacity="0.045"/>
  <circle cx="716" cy="118" r="34" fill="#E2725B" opacity="0.035"/><rect x="48" y="34" width="844" height="358" rx="24" fill="#0F141B" stroke="#303A49"/><line x1="82" y1="64" x2="858" y2="64" class="line"/><rect x="82" y="94" width="342" height="224" rx="16" class="soft"/><text x="106" y="136" class="h3">Workbench</text><rect x="106" y="158" width="274" height="112" rx="10" fill="#0B0F14" stroke="#303A49"/><text x="124" y="186" font-family="Cascadia Mono,Consolas,monospace" font-size="12" font-weight="700" fill="#F9FAFB">S-s-Spudd</text><text x="124" y="208" font-family="Cascadia Mono,Consolas,monospace" font-size="11" font-weight="700" fill="#F9FAFB">|-- shipping: Discord bot features</text><text x="124" y="226" font-family="Cascadia Mono,Consolas,monospace" font-size="11" font-weight="700" fill="#F9FAFB">|-- shipping: Spud Symphony website</text><text x="124" y="244" font-family="Cascadia Mono,Consolas,monospace" font-size="11" font-weight="700" fill="#F9FAFB">+-- aim: turn hobby work into IT skill</text><rect x="464" y="94" width="394" height="260" rx="16" class="soft"/><text x="488" y="136" class="h3">What I care about</text>
<g font-family="Segoe UI,Arial,sans-serif" font-size="12" font-weight="800">
  <rect x="488" y="158" width="348" height="38" rx="9" fill="#0D1117" stroke="#303A49"/><rect x="488" y="158" width="4" height="38" rx="2" fill="#E2725B"/><text x="508" y="182" fill="#F9FAFB">Useful first</text><text x="638" y="182" fill="#F9FAFB" font-size="11.4">Tools should solve a real server problem.</text>
  <rect x="488" y="204" width="348" height="38" rx="9" fill="#0D1117" stroke="#303A49"/><rect x="488" y="204" width="4" height="38" rx="2" fill="#950015"/><text x="508" y="228" fill="#F9FAFB">Readable systems</text><text x="638" y="228" fill="#F9FAFB" font-size="11.4">Code, UI and bot behavior stay traceable.</text>
  <rect x="488" y="250" width="348" height="38" rx="9" fill="#0D1117" stroke="#303A49"/><rect x="488" y="250" width="4" height="38" rx="2" fill="#E2725B"/><text x="508" y="274" fill="#F9FAFB">Clean presentation</text><text x="638" y="274" fill="#F9FAFB" font-size="11.4">Profile surfaces should feel intentional.</text>
  <rect x="488" y="296" width="348" height="38" rx="9" fill="#0D1117" stroke="#303A49"/><rect x="488" y="296" width="4" height="38" rx="2" fill="#950015"/><text x="508" y="320" fill="#F9FAFB">Practical growth</text><text x="638" y="320" fill="#F9FAFB" font-size="11.4">Every project builds better IT habits.</text>
</g></svg>
