<svg xmlns="http://www.w3.org/2000/svg" width="940" height="500" viewBox="0 0 940 500" role="img" aria-labelledby="title desc"><title id="title">Workbench and values</title><desc id="desc">Current workbench and focus values.</desc><style>
  .bg{fill:#0D1117}.soft{fill:#131B27;stroke:#344052;stroke-width:1}.line{stroke:#2A3340;stroke-width:1}.h3{font:800 20px 'Segoe UI',Arial,sans-serif;fill:#F9FAFB}.small{font:700 12px 'Segoe UI',Arial,sans-serif;fill:#D1D5DB}.accent{fill:#E2725B}.monoText{font-family:'Cascadia Mono','SFMono-Regular',Consolas,monospace;font-weight:700;fill:#F9FAFB}
</style><rect class="bg" width="940" height="500"/><circle cx="845" cy="64" r="46" fill="#E2725B" opacity="0.08"/><circle cx="828" cy="344" r="92" fill="#950015" opacity="0.10"/><circle cx="78" cy="344" r="68" fill="#950015" opacity="0.045"/><circle cx="716" cy="118" r="34" fill="#E2725B" opacity="0.035"/><rect x="48" y="34" width="844" height="412" rx="24" fill="#0F141B" stroke="#303A49"/><line x1="82" y1="64" x2="858" y2="64" class="line"/><rect x="82" y="102" width="342" height="310" rx="16" class="soft"/><text x="106" y="144" class="h3">Workbench</text><rect x="106" y="172" width="292" height="160" rx="10" fill="#0B0F14" stroke="#303A49"/><text x="124" y="200" class="monoText" font-size="12">S-s-Spudd</text><text x="124" y="224" class="monoText" font-size="11">|-- shipping: Discord bot features</text><text x="124" y="246" class="monoText" font-size="11">|-- shipping: Spud Symphony website</text><text x="124" y="268" class="monoText" font-size="11">|-- learning: IT foundations</text><text x="124" y="290" class="monoText" font-size="11">+-- aim: industry skill</text><rect x="464" y="102" width="394" height="310" rx="16" class="soft"/><text x="488" y="144" class="h3">What I care about</text><g font-family="Segoe UI,Arial,sans-serif"><rect x="488" y="166" width="348" height="48" rx="9" fill="#0D1117" stroke="#303A49"/><rect x="488" y="166" width="4" height="48" rx="2" fill="#E2725B"/><text x="508" y="187" fill="#F9FAFB" font-size="12" font-weight="800">Useful first</text><text x="508" y="204" fill="#D1D5DB" font-size="11.5" font-weight="700">Tools solve server problems.</text><rect x="488" y="226" width="348" height="48" rx="9" fill="#0D1117" stroke="#303A49"/><rect x="488" y="226" width="4" height="48" rx="2" fill="#950015"/><text x="508" y="247" fill="#F9FAFB" font-size="12" font-weight="800">Readable systems</text><text x="508" y="264" fill="#D1D5DB" font-size="11.5" font-weight="700">Code and UI stay clear.</text><rect x="488" y="286" width="348" height="48" rx="9" fill="#0D1117" stroke="#303A49"/><rect x="488" y="286" width="4" height="48" rx="2" fill="#E2725B"/><text x="508" y="307" fill="#F9FAFB" font-size="12" font-weight="800">Clean presentation</text><text x="508" y="324" fill="#D1D5DB" font-size="11.5" font-weight="700">Surfaces feel intentional.</text><rect x="488" y="346" width="348" height="48" rx="9" fill="#0D1117" stroke="#303A49"/><rect x="488" y="346" width="4" height="48" rx="2" fill="#950015"/><text x="508" y="367" fill="#F9FAFB" font-size="12" font-weight="800">Practical growth</text><text x="508" y="384" fill="#D1D5DB" font-size="11.5" font-weight="700">Projects build IT habits.</text></g></svg>
